<?xml version="1.0" standalone="no"?><!DOCTYPE svg PUBLIC "-//W3C//DTD SVG 1.1//EN" "http://www.w3.org/Graphics/SVG/1.1/DTD/svg11.dtd" [<!ENTITY nbsp " ">]><svg data-noselect="" viewBox="18 123.0425717914575 525.32153539382 393.991151545365" width="525.32153539382" ref="svg_canvas" height="393.991151545365" preserveAspectRatio="none" version="1.1" xmlns="http://www.w3.org/2000/svg" style="background: rgba(255, 255, 255, 0);">
    <def></def>
    <g id="shape_OYqKI1CcvR" ref="shape_OYqKI1CcvR" key="shape_OYqKI1CcvR" transform="translate(98,221.99133300781) rotate(0,108.60119641077,82.820180536822) scale(1,1)" style="cursor:move;display:inline;opacity:1;" filter="">
            <g style="display:inline"><rect fill="rgba(0,0,0,0)" width="237.20239282154" height="185.64036107364" x="-10" y="-10"></rect><svg version="1.1" id="图层_1" xmlns="http://www.w3.org/2000/svg" xmlns:xlink="http://www.w3.org/1999/xlink" x="0px" y="0px" width="217.20239282154" height="165.64036107364" viewBox="2.5 23.899999618530273 196.29998779296875 149.70001220703125" style="enable-background:new 0 0 200 200;" xml:space="preserve" class="style-removed" preserveAspectRatio="none" data-parent="shape_OYqKI1CcvR">

<path d="M2.5,173.5l15.7-55.8c1.9-6.7,8-11.3,14.9-11.3h77.7L95,162.3c-1.9,6.7-8,11.3-14.9,11.3H2.5z" fill="#0348FE" stroke-width="0"></path>
<path d="M50.3,50.5l6.2-22.1c0.7-2.6,3.2-4.5,5.9-4.5h30.7l-6.2,22.1c-0.7,2.6-3.2,4.5-5.9,4.5H50.3z" fill="#027DFF" stroke-width="0"></path>
<path d="M46.5,132.3l15.7-55.8c1.9-6.7,8-11.3,14.9-11.3h77.7L139.1,121c-1.9,6.7-8,11.3-14.9,11.3H46.5z" fill="#027DFF" stroke-width="0"></path>
<path d="M77.1,65.3c-6.9,0-13,4.6-14.9,11.3L90.5,91c0,0,7.3-25.8,7.3-25.8H77.1z" fill="#0507D9" stroke-width="0"></path>
<path d="M33.1,106.5c-6.9,0-13,4.6-14.9,11.3l28.3,14.5c0,0,7.3-25.8,7.3-25.8H33.1z" fill="#0507D9" stroke-width="0"></path>
<path d="M90.5,91l15.7-55.8c1.9-6.7,8-11.3,14.9-11.3h77.7l-15.7,55.8c-1.9,6.7-8,11.3-14.9,11.3H90.5z" fill="#0348FE" stroke-width="0"></path>
</svg></g>
        </g><g id="shape_2S9bfUBiMb" ref="shape_2S9bfUBiMb" key="shape_2S9bfUBiMb" transform="translate(286.46607178465,151.07007677651) rotate(0,175.52694915254,120.333160240394) scale(1,1)" style="cursor:move;display:inline;opacity:1;" filter="">
            <g style="display:inline"><svg xmlns="http://www.w3.org/2000/svg" version="1.1" xmlns:xlink="http://www.w3.org/1999/xlink" width="246.04" height="241.06" viewBox="0 0 246.04 241.06" preserveAspectRatio="none" data-parent="shape_2S9bfUBiMb"><rect fill="rgba(0,0,0,0)" width="112" height="40" x="33.51" y="100.53"></rect><g data-width="111.73817871093749" transform="translate(33.51, 0)"><path d="M17.44 0L2.45 0L2.45-23.99L5.63-23.99L5.63-2.83L17.44-2.83L17.44 0Z" transform="translate(0 131.53) " fill="rgb(8, 12, 36)" stroke="rgb(8, 12, 36)" stroke-width="0.056" data-glyph-w="18.6366650390625" data-glyph-h="37.436953124999995" data-glyph-ascender="30.335712890624997" data-glyph-descender="-7.101240234374999"></path><path d="M18.33-10.14L18.33-23.99L21.50-23.99L21.50-10.13Q21.50-6.51 20.68-4.39Q19.86-2.26 17.73-0.92Q15.59 0.41 12.12 0.41L12.12 0.41Q8.75 0.41 6.61-0.75Q4.47-1.91 3.55-4.12Q2.63-6.32 2.63-10.13L2.63-10.13L2.63-23.99L5.81-23.99L5.81-10.14Q5.81-7.02 6.39-5.54Q6.97-4.06 8.39-3.26Q9.80-2.45 11.85-2.45L11.85-2.45Q15.35-2.45 16.84-4.04Q18.33-5.63 18.33-10.14L18.33-10.14Z" transform="translate(18.6366650390625 131.53) " fill="rgb(8, 12, 36)" stroke="rgb(8, 12, 36)" stroke-width="0.056" data-glyph-w="24.199848632812497" data-glyph-h="37.436953124999995" data-glyph-ascender="30.335712890624997" data-glyph-descender="-7.101240234374999"></path><path d="M11.60 0L2.45 0L2.45-23.99L11.45-23.99Q14.20-23.99 15.86-23.26Q17.52-22.53 18.46-21.02Q19.41-19.50 19.41-17.85L19.41-17.85Q19.41-16.31 18.57-14.96Q17.74-13.60 16.05-12.76L16.05-12.76Q18.23-12.12 19.40-10.59Q20.57-9.05 20.57-6.95L20.57-6.95Q20.57-5.27 19.86-3.82Q19.14-2.37 18.10-1.59Q17.05-0.80 15.47-0.40Q13.89 0 11.60 0L11.60 0ZM5.63-21.16L5.63-13.91L10.82-13.91Q12.93-13.91 13.84-14.19L13.84-14.19Q15.05-14.55 15.67-15.38Q16.28-16.22 16.28-17.47L16.28-17.47Q16.28-18.67 15.71-19.58Q15.14-20.49 14.07-20.82Q13.01-21.16 10.42-21.16L10.42-21.16L5.63-21.16ZM5.63-11.08L5.63-2.83L11.60-2.83Q13.14-2.83 13.76-2.95L13.76-2.95Q14.86-3.14 15.59-3.60Q16.33-4.06 16.80-4.93Q17.28-5.81 17.28-6.95L17.28-6.95Q17.28-8.30 16.59-9.29Q15.90-10.28 14.69-10.68Q13.47-11.08 11.18-11.08L11.18-11.08L5.63-11.08Z" transform="translate(42.836513671875 131.53) " fill="rgb(8, 12, 36)" stroke="rgb(8, 12, 36)" stroke-width="0.056" data-glyph-w="22.350908203124998" data-glyph-h="37.436953124999995" data-glyph-ascender="30.335712890624997" data-glyph-descender="-7.101240234374999"></path><path d="M3.32 0L-0.05 0L9.16-23.99L12.58-23.99L22.40 0L18.78 0L15.99-7.26L5.96-7.26L3.32 0ZM9.51-16.89L6.87-9.85L15.00-9.85L12.50-16.49Q11.36-19.52 10.80-21.47L10.80-21.47Q10.34-19.16 9.51-16.89L9.51-16.89Z" transform="translate(65.187421875 131.53) " fill="rgb(8, 12, 36)" stroke="rgb(8, 12, 36)" stroke-width="0.056" data-glyph-w="22.350908203124998" data-glyph-h="37.436953124999995" data-glyph-ascender="30.335712890624997" data-glyph-descender="-7.101240234374999"></path><path d="M5.60 0L2.55 0L2.55-23.99L5.81-23.99L18.41-5.15L18.41-23.99L21.45-23.99L21.45 0L18.19 0L5.60-18.85L5.60 0Z" transform="translate(87.538330078125 131.53) " fill="rgb(8, 12, 36)" stroke="rgb(8, 12, 36)" stroke-width="0.056" data-glyph-w="24.199848632812497" data-glyph-h="37.436953124999995" data-glyph-ascender="30.335712890624997" data-glyph-descender="-7.101240234374999"></path></g></svg></g>
        </g><g id="shape_PUimOcwDy2" ref="shape_PUimOcwDy2" key="shape_PUimOcwDy2" transform="translate(145.40153539381998,-51.67503787953001) rotate(0,331.50923230309,402.124745762712) scale(1,1)" style="cursor:move;display:inline;opacity:1;" filter="">
            <g style="display:inline"><svg xmlns="http://www.w3.org/2000/svg" version="1.1" xmlns:xlink="http://www.w3.org/1999/xlink" width="653.6800000000001" height="805.52" viewBox="0 0 653.6800000000001 805.52" preserveAspectRatio="none" data-parent="shape_PUimOcwDy2"><rect fill="rgba(0,0,0,0)" width="206" height="134" x="111.92" y="335.76"></rect><g data-width="205.93280000000001" transform="translate(111.92, 0)"><path d="M85.06-77.78L98.60-77.78L90.43-67.71L97.93-67.71L97.93-52.38Q97.93-49.69 96.98-47.29Q96.03-44.88 94.35-43.09Q92.67-41.30 90.43-40.29Q88.19-39.28 85.62-39.28L85.62-39.28L84.84-39.28L82.37-39.28L20.59-39.28L18.69-39.28L5.04-39.28L5.04-67.71L16.12-67.71L20.59-67.71L74.87-67.71L76.78-69.95L19.81-69.95L19.03-69.95L4.36-69.95L13.88-80.92L29.43-80.92L26.41-77.78L83.16-77.78L85.06-77.78ZM82.37-59.54L59.21-59.54L59.21-55.96L82.37-55.96L82.37-59.54ZM43.76-59.54L20.59-59.54L20.59-55.96L43.76-55.96L43.76-59.54ZM20.59-51.04L20.59-47.34L43.76-47.34L43.76-51.04L20.59-51.04ZM59.21-47.34L79.91-47.34Q81.03-47.34 81.70-48.13Q82.37-48.91 82.37-50.03L82.37-50.03L82.37-51.04L59.21-51.04L59.21-47.34ZM2.35-29.10L2.35-36.37L100.62-36.37L100.62-29.10L2.35-29.10ZM96.03-26.19L98.60-26.19L98.60-12.31Q98.60-9.74 97.65-7.44Q96.70-5.15 95.02-3.47Q93.34-1.79 91.10-0.78Q88.86 0.22 86.29 0.22L86.29 0.22L84.05 0.22L83.04 0.22L19.92 0.22L18.02 0.22L4.36 0.22L4.36-25.52L4.36-26.19L96.03-26.19ZM19.92-18.47L19.92-15.00L83.04-15.00L83.04-18.47L19.92-18.47ZM19.92-7.61L80.58-7.61Q81.70-7.61 82.37-8.34Q83.04-9.07 83.04-10.07L83.04-10.07L83.04-11.08L19.92-11.08L19.92-7.61Z" transform="translate(0 442.76) " fill="rgb(8, 12, 36)" stroke="rgb(8, 12, 36)" stroke-width="0.187" data-glyph-w="102.96640000000001" data-glyph-h="111.92" data-glyph-ascender="96.13928" data-glyph-descender="-15.78072"></path><path d="M52.71-80.69L65.14-80.69L60.77 0.11L47.79 0.11L52.71-80.69ZM2.35-11.42L10.97-11.42L10.97-34.81L2.35-34.81L2.35-44.88L10.97-44.88L10.97-68.27L2.35-68.27L2.35-78.34L35.25-78.34L35.25-68.27L26.53-68.27L26.53-44.88L35.25-44.88L35.25-34.81L26.53-34.81L26.53-11.42L35.25-11.42L35.25-1.34L2.35-1.34L2.35-11.42ZM67.71-11.42L76.33-11.42L76.33-34.81L67.71-34.81L67.71-44.88L76.33-44.88L76.33-68.27L67.71-68.27L67.71-78.34L100.62-78.34L100.62-68.27L91.89-68.27L91.89-44.88L100.62-44.88L100.62-34.81L91.89-34.81L91.89-11.42L100.62-11.42L100.62-1.34L67.71-1.34L67.71-11.42ZM37.83-18.35L37.83-62.23L48.35-62.23L48.35-18.35L37.83-18.35Z" transform="translate(102.96640000000001 442.76) " fill="rgb(8, 12, 36)" stroke="rgb(8, 12, 36)" stroke-width="0.187" data-glyph-w="102.96640000000001" data-glyph-h="111.92" data-glyph-ascender="96.13928" data-glyph-descender="-15.78072"></path></g></svg></g>
        </g>
  </svg>